<svg width="254" height="62" viewBox="0 0 254 62" fill="none" xmlns="http://www.w3.org/2000/svg">
<circle cx="31" cy="23" r="12" fill="#624A3D"/>
<circle cx="40.5" cy="34.5" r="8.5" fill="#F89661"/>
<path d="M51.8333 48C51.8333 49.4728 53.0272 50.6667 54.5 50.6667C55.9728 50.6667 57.1667 49.4728 57.1667 48C57.1667 46.5272 55.9728 45.3333 54.5 45.3333C53.0272 45.3333 51.8333 46.5272 51.8333 48ZM31.9999 19.1163L31.8626 13.3444L26.9327 16.3492L31.9999 19.1163ZM54.5 47.5C47.0641 47.5 36.3951 45.6376 27.603 41.1321C18.8134 36.6278 12 29.5438 12 19.1162H11C11 30.0725 18.1866 37.4303 27.1469 42.022C36.1048 46.6125 46.9357 48.5 54.5 48.5V47.5ZM12 19.1162C12 15.2926 12.7715 12.822 13.9335 11.3331C15.0771 9.86779 16.6492 9.28999 18.4335 9.35373C20.2372 9.41816 22.2473 10.1418 24.1721 11.2831C26.0923 12.4216 27.8932 13.9558 29.2753 15.5956L30.04 14.9511C28.5855 13.2255 26.6984 11.6184 24.6821 10.4229C22.6705 9.23011 20.4959 8.42676 18.4692 8.35436C16.4233 8.28128 14.5197 8.95677 13.1452 10.7179C11.7891 12.4554 11 15.1843 11 19.1162H12Z" fill="#F89661"/>
<path d="M68.94 27.9C68.94 26.54 69.5 25.4333 70.62 24.58C71.7533 23.7267 73.2333 23.3 75.06 23.3C76.9 23.3 78.4 23.7467 79.56 24.64C80.7333 25.5333 81.32 26.4667 81.32 27.44C81.32 27.56 81.2733 27.6667 81.18 27.76C81.1 27.84 81.0067 27.88 80.9 27.88H76.9C76.5933 27.88 76.3133 27.7667 76.06 27.54C75.8067 27.3133 75.4667 27.2 75.04 27.2C74.4 27.2 74.08 27.3867 74.08 27.76C74.08 27.96 74.2333 28.1267 74.54 28.26C74.86 28.3933 75.4467 28.5133 76.3 28.62C78.2867 28.8733 79.7 29.34 80.54 30.02C81.3933 30.6867 81.82 31.7067 81.82 33.08C81.82 34.44 81.1933 35.5533 79.94 36.42C78.7 37.2733 77.0733 37.7 75.06 37.7C73.0467 37.7 71.4667 37.2867 70.32 36.46C69.1733 35.6333 68.6 34.6267 68.6 33.44C68.6 33.32 68.64 33.22 68.72 33.14C68.8133 33.0467 68.92 33 69.04 33H72.84C73.12 33 73.4267 33.1333 73.76 33.4C74.1067 33.6667 74.58 33.8 75.18 33.8C76.18 33.8 76.68 33.6133 76.68 33.24C76.68 33 76.5 32.82 76.14 32.7C75.78 32.5667 75.1 32.4333 74.1 32.3C70.66 31.8467 68.94 30.38 68.94 27.9ZM95.0941 31.52V33.1C95.0941 34.5933 94.6941 35.7333 93.8941 36.52C93.0941 37.3067 92.1141 37.7 90.9541 37.7C89.8074 37.7 88.8874 37.3867 88.1941 36.76V40.76C88.1941 40.9067 88.1407 41.0333 88.0341 41.14C87.9274 41.2467 87.8007 41.3 87.6541 41.3H83.9541C83.8074 41.3 83.6807 41.2467 83.5741 41.14C83.4674 41.0333 83.4141 40.9067 83.4141 40.76V27.64C83.4141 27.4933 83.4674 27.3667 83.5741 27.26C83.6807 27.1533 83.8074 27.1 83.9541 27.1H87.3541C87.5007 27.1 87.6274 27.1533 87.7341 27.26C87.8407 27.3667 87.8941 27.4933 87.8941 27.64V28.24C88.5874 27.3467 89.5674 26.9 90.8341 26.9C92.1007 26.9 93.1274 27.28 93.9141 28.04C94.7007 28.7867 95.0941 29.9467 95.0941 31.52ZM88.1941 31.64V33.12C88.2341 33.7867 88.5674 34.12 89.1941 34.12C89.8607 34.12 90.1941 33.7333 90.1941 32.96V31.64C90.1941 30.8667 89.8607 30.48 89.1941 30.48C88.5274 30.48 88.1941 30.8667 88.1941 31.64ZM96.493 34.52C96.493 32.72 97.953 31.5667 100.873 31.06L102.993 30.72C102.993 30.32 102.96 30.0533 102.893 29.92C102.826 29.7733 102.666 29.7 102.413 29.7C102.173 29.7 101.933 29.8067 101.693 30.02C101.453 30.2333 101.226 30.34 101.013 30.34H97.613C97.3196 30.34 97.173 30.2 97.173 29.92C97.173 29.6267 97.273 29.32 97.473 29C97.6863 28.6667 97.9863 28.34 98.373 28.02C98.773 27.7 99.3263 27.4333 100.033 27.22C100.753 27.0067 101.553 26.9 102.433 26.9C104.22 26.9 105.56 27.2733 106.453 28.02C107.346 28.7667 107.793 29.8333 107.793 31.22V36.96C107.793 37.1067 107.74 37.2333 107.633 37.34C107.526 37.4467 107.4 37.5 107.253 37.5H103.753C103.606 37.5 103.48 37.4467 103.373 37.34C103.266 37.2333 103.213 37.1067 103.213 36.96V36.4C102.586 37.2667 101.673 37.7 100.473 37.7C99.273 37.7 98.3063 37.4 97.573 36.8C96.853 36.1867 96.493 35.4267 96.493 34.52ZM101.753 34.74C102.62 34.74 103.053 34.22 103.053 33.18L101.873 33.44C101.286 33.5733 100.993 33.82 100.993 34.18C100.993 34.34 101.06 34.4733 101.193 34.58C101.326 34.6867 101.513 34.74 101.753 34.74ZM114.284 31.6V33C114.284 33.4533 114.344 33.78 114.464 33.98C114.584 34.18 114.77 34.28 115.024 34.28C115.277 34.28 115.45 34.24 115.544 34.16C115.637 34.0667 115.73 33.9 115.824 33.66C115.93 33.4067 116.124 33.28 116.404 33.28H120.304C120.45 33.28 120.577 33.3333 120.684 33.44C120.79 33.5467 120.844 33.6867 120.844 33.86C120.844 34.0333 120.784 34.2667 120.664 34.56C120.544 34.8533 120.337 35.1867 120.044 35.56C119.75 35.9333 119.39 36.28 118.964 36.6C118.537 36.9067 117.977 37.1667 117.284 37.38C116.59 37.5933 115.824 37.7 114.984 37.7C113.317 37.7 111.964 37.2667 110.924 36.4C109.897 35.52 109.384 34.3067 109.384 32.76V31.84C109.384 30.2933 109.897 29.0867 110.924 28.22C111.964 27.34 113.317 26.9 114.984 26.9C115.97 26.9 116.864 27.0533 117.664 27.36C118.464 27.6533 119.077 28.02 119.504 28.46C119.944 28.8867 120.277 29.3067 120.504 29.72C120.73 30.1333 120.844 30.4533 120.844 30.68C120.844 30.8933 120.79 31.0533 120.684 31.16C120.577 31.2667 120.45 31.32 120.304 31.32H116.404C116.15 31.32 115.957 31.1867 115.824 30.92C115.637 30.52 115.39 30.32 115.084 30.32C114.55 30.32 114.284 30.7467 114.284 31.6ZM132.998 33.48H127.038V33.58C127.038 34.3933 127.298 34.8 127.818 34.8C127.964 34.8 128.144 34.6933 128.358 34.48C128.571 34.2667 128.804 34.16 129.058 34.16H132.838C133.131 34.16 133.278 34.3067 133.278 34.6C133.278 35.2533 132.784 35.9333 131.798 36.64C130.824 37.3467 129.498 37.7 127.818 37.7C126.151 37.7 124.784 37.2667 123.718 36.4C122.664 35.52 122.138 34.3133 122.138 32.78V31.82C122.138 30.3667 122.678 29.1867 123.758 28.28C124.838 27.36 126.251 26.9 127.998 26.9C129.758 26.9 131.118 27.4133 132.078 28.44C133.051 29.4667 133.538 30.7667 133.538 32.34V32.94C133.538 33.0867 133.484 33.2133 133.378 33.32C133.271 33.4267 133.144 33.48 132.998 33.48ZM128.638 30.9C128.638 30.1 128.371 29.7 127.838 29.7C127.304 29.7 127.038 30.1 127.038 30.9V30.98H128.638V30.9ZM141.171 23.5H152.891C153.038 23.5 153.165 23.5533 153.271 23.66C153.378 23.7667 153.431 23.8933 153.431 24.04V27.26C153.431 27.4067 153.378 27.5333 153.271 27.64C153.165 27.7467 153.038 27.8 152.891 27.8H149.571V36.96C149.571 37.1067 149.518 37.2333 149.411 37.34C149.305 37.4467 149.178 37.5 149.031 37.5H145.031C144.885 37.5 144.758 37.4467 144.651 37.34C144.545 37.2333 144.491 37.1067 144.491 36.96V27.8H141.171C141.025 27.8 140.898 27.7467 140.791 27.64C140.685 27.5333 140.631 27.4067 140.631 27.26V24.04C140.631 23.8933 140.685 23.7667 140.791 23.66C140.898 23.5533 141.025 23.5 141.171 23.5ZM154.735 32.98V31.62C154.735 30.1 155.275 28.9333 156.355 28.12C157.435 27.3067 158.828 26.9 160.535 26.9C162.242 26.9 163.635 27.3067 164.715 28.12C165.795 28.9333 166.335 30.1 166.335 31.62V32.98C166.335 34.5133 165.815 35.6867 164.775 36.5C163.735 37.3 162.322 37.7 160.535 37.7C158.748 37.7 157.335 37.3 156.295 36.5C155.255 35.6867 154.735 34.5133 154.735 32.98ZM161.435 33.14V31.46C161.435 30.9533 161.368 30.6 161.235 30.4C161.102 30.2 160.868 30.1 160.535 30.1C160.202 30.1 159.968 30.2 159.835 30.4C159.702 30.6 159.635 30.9533 159.635 31.46V33.14C159.635 33.6733 159.702 34.0333 159.835 34.22C159.968 34.4067 160.202 34.5 160.535 34.5C160.868 34.5 161.102 34.4 161.235 34.2C161.368 34 161.435 33.6467 161.435 33.14ZM167.943 33.16V27.64C167.943 27.4933 167.996 27.3667 168.103 27.26C168.21 27.1533 168.336 27.1 168.483 27.1H172.303C172.45 27.1 172.576 27.1533 172.683 27.26C172.79 27.3667 172.843 27.4933 172.843 27.64V33.02C172.843 33.7533 173.176 34.12 173.843 34.12C174.51 34.12 174.843 33.7533 174.843 33.02V27.64C174.843 27.4933 174.896 27.3667 175.003 27.26C175.11 27.1533 175.236 27.1 175.383 27.1H179.183C179.33 27.1 179.456 27.1533 179.563 27.26C179.67 27.3667 179.723 27.4933 179.723 27.64V36.96C179.723 37.1067 179.67 37.2333 179.563 37.34C179.456 37.4467 179.33 37.5 179.183 37.5H175.683C175.536 37.5 175.41 37.4467 175.303 37.34C175.196 37.2333 175.143 37.1067 175.143 36.96V36.3C174.516 37.2333 173.41 37.7 171.823 37.7C170.73 37.7 169.81 37.32 169.063 36.56C168.316 35.7867 167.943 34.6533 167.943 33.16ZM186.095 27.64V28.34C187.028 27.5133 188.068 27.1 189.215 27.1H190.175C190.322 27.1 190.448 27.1533 190.555 27.26C190.662 27.3667 190.715 27.4933 190.715 27.64V30.76C190.715 30.9067 190.662 31.0333 190.555 31.14C190.448 31.2467 190.322 31.3 190.175 31.3H187.595C187.235 31.3 186.948 31.3867 186.735 31.56C186.535 31.72 186.422 31.94 186.395 32.22V36.96C186.395 37.1067 186.342 37.2333 186.235 37.34C186.128 37.4467 186.002 37.5 185.855 37.5H182.055C181.908 37.5 181.782 37.4467 181.675 37.34C181.568 37.2333 181.515 37.1067 181.515 36.96V27.64C181.515 27.4933 181.568 27.3667 181.675 27.26C181.782 27.1533 181.908 27.1 182.055 27.1H185.555C185.702 27.1 185.828 27.1533 185.935 27.26C186.042 27.3667 186.095 27.4933 186.095 27.64ZM198.961 23.5H209.041C209.188 23.5 209.314 23.5533 209.421 23.66C209.528 23.7667 209.581 23.8933 209.581 24.04V27.08C209.581 27.2267 209.528 27.3533 209.421 27.46C209.314 27.5667 209.188 27.62 209.041 27.62H203.321V29.1H208.641C208.788 29.1 208.914 29.1533 209.021 29.26C209.128 29.3667 209.181 29.4933 209.181 29.64V32.66C209.181 32.8067 209.128 32.9333 209.021 33.04C208.914 33.1467 208.788 33.2 208.641 33.2H203.321V36.96C203.321 37.1067 203.268 37.2333 203.161 37.34C203.054 37.4467 202.928 37.5 202.781 37.5H198.961C198.814 37.5 198.688 37.4467 198.581 37.34C198.474 37.2333 198.421 37.1067 198.421 36.96V24.04C198.421 23.8933 198.474 23.7667 198.581 23.66C198.688 23.5533 198.814 23.5 198.961 23.5ZM215.503 37.5H211.923C211.776 37.5 211.649 37.4467 211.543 37.34C211.436 37.2333 211.383 37.1067 211.383 36.96V23.84C211.383 23.6933 211.436 23.5667 211.543 23.46C211.649 23.3533 211.776 23.3 211.923 23.3H215.503C215.649 23.3 215.776 23.3533 215.883 23.46C215.989 23.5667 216.043 23.6933 216.043 23.84V36.96C216.043 37.1067 215.989 37.2333 215.883 37.34C215.776 37.4467 215.649 37.5 215.503 37.5ZM217.843 27.1H221.223C221.53 27.1 221.743 27.26 221.863 27.58L223.503 32.14L225.203 27.58C225.336 27.26 225.563 27.1 225.883 27.1H229.223C229.343 27.1 229.45 27.1467 229.543 27.24C229.636 27.32 229.683 27.4067 229.683 27.5C229.683 27.5933 229.676 27.6667 229.663 27.72L224.023 40.82C223.89 41.14 223.656 41.3 223.323 41.3H220.043C219.923 41.3 219.816 41.26 219.723 41.18C219.643 41.1 219.603 41 219.603 40.88C219.603 40.7733 219.61 40.7067 219.623 40.68L221.223 36.84L217.363 27.72C217.35 27.68 217.343 27.6333 217.343 27.58C217.396 27.26 217.563 27.1 217.843 27.1ZM241.435 33.48H235.475V33.58C235.475 34.3933 235.735 34.8 236.255 34.8C236.402 34.8 236.582 34.6933 236.795 34.48C237.008 34.2667 237.242 34.16 237.495 34.16H241.275C241.568 34.16 241.715 34.3067 241.715 34.6C241.715 35.2533 241.222 35.9333 240.235 36.64C239.262 37.3467 237.935 37.7 236.255 37.7C234.588 37.7 233.222 37.2667 232.155 36.4C231.102 35.52 230.575 34.3133 230.575 32.78V31.82C230.575 30.3667 231.115 29.1867 232.195 28.28C233.275 27.36 234.688 26.9 236.435 26.9C238.195 26.9 239.555 27.4133 240.515 28.44C241.488 29.4667 241.975 30.7667 241.975 32.34V32.94C241.975 33.0867 241.922 33.2133 241.815 33.32C241.708 33.4267 241.582 33.48 241.435 33.48ZM237.075 30.9C237.075 30.1 236.808 29.7 236.275 29.7C235.742 29.7 235.475 30.1 235.475 30.9V30.98H237.075V30.9ZM248.048 27.64V28.34C248.981 27.5133 250.021 27.1 251.168 27.1H252.128C252.275 27.1 252.401 27.1533 252.508 27.26C252.615 27.3667 252.668 27.4933 252.668 27.64V30.76C252.668 30.9067 252.615 31.0333 252.508 31.14C252.401 31.2467 252.275 31.3 252.128 31.3H249.548C249.188 31.3 248.901 31.3867 248.688 31.56C248.488 31.72 248.375 31.94 248.348 32.22V36.96C248.348 37.1067 248.295 37.2333 248.188 37.34C248.081 37.4467 247.955 37.5 247.808 37.5H244.008C243.861 37.5 243.735 37.4467 243.628 37.34C243.521 37.2333 243.468 37.1067 243.468 36.96V27.64C243.468 27.4933 243.521 27.3667 243.628 27.26C243.735 27.1533 243.861 27.1 244.008 27.1H247.508C247.655 27.1 247.781 27.1533 247.888 27.26C247.995 27.3667 248.048 27.4933 248.048 27.64Z" fill="#F89661"/>
</svg>
